<?xml version="1.0" encoding="UTF-8" standalone="no"?>
<svg
   xmlns:dc="http://purl.org/dc/elements/1.1/"
   xmlns:cc="http://creativecommons.org/ns#"
   xmlns:rdf="http://www.w3.org/1999/02/22-rdf-syntax-ns#"
   xmlns:svg="http://www.w3.org/2000/svg"
   xmlns="http://www.w3.org/2000/svg"
   viewBox="0 0 1280 720"
   height="720"
   width="1280"
   xml:space="preserve"
   id="svg2"
   version="1.1"><metadata
     id="metadata8"><rdf:RDF><cc:Work
         rdf:about=""><dc:format>image/svg+xml</dc:format><dc:type
           rdf:resource="http://purl.org/dc/dcmitype/StillImage" /></cc:Work></rdf:RDF></metadata><defs
     id="defs6"><clipPath
       id="clipPath18"
       clipPathUnits="userSpaceOnUse"><path
         style="clip-rule:evenodd"
         id="path16"
         d="M 0,1.2207e-4 H 960 V 540.00012 H 0 Z" /></clipPath><clipPath
       id="clipPath28"
       clipPathUnits="userSpaceOnUse"><path
         style="clip-rule:evenodd"
         id="path26"
         d="M 1.2e-8,1.2207e-4 H 960 V 540.00012 H 1.2e-8 Z" /></clipPath><clipPath
       id="clipPath40"
       clipPathUnits="userSpaceOnUse"><path
         style="clip-rule:evenodd"
         id="path38"
         d="M 1.4305e-5,0 H 960.00001 V 540 H 1.4305e-5 Z" /></clipPath><clipPath
       id="clipPath56"
       clipPathUnits="userSpaceOnUse"><path
         style="clip-rule:evenodd"
         id="path54"
         d="M 1.4305e-5,0 H 960.00001 V 540 H 1.4305e-5 Z" /></clipPath><clipPath
       id="clipPath68"
       clipPathUnits="userSpaceOnUse"><path
         style="clip-rule:evenodd"
         id="path66"
         d="M 0,2.4414e-4 H 960 V 540.00024 H 0 Z" /></clipPath><clipPath
       id="clipPath78"
       clipPathUnits="userSpaceOnUse"><path
         style="clip-rule:evenodd"
         id="path76"
         d="M 1.4305e-5,0 H 960.00001 V 540 H 1.4305e-5 Z" /></clipPath><clipPath
       id="clipPath90"
       clipPathUnits="userSpaceOnUse"><path
         style="clip-rule:evenodd"
         id="path88"
         d="M 919.8,463.32 H 948 v 27 h -28.2 z" /></clipPath><clipPath
       id="clipPath100"
       clipPathUnits="userSpaceOnUse"><path
         id="path98"
         d="M 0,0 H 11.656 V 11.64 H 0 Z" /></clipPath><clipPath
       id="clipPath116"
       clipPathUnits="userSpaceOnUse"><path
         style="clip-rule:evenodd"
         id="path114"
         d="M 1.4305e-5,0 H 960.00001 V 540 H 1.4305e-5 Z" /></clipPath><clipPath
       id="clipPath130"
       clipPathUnits="userSpaceOnUse"><path
         style="clip-rule:evenodd"
         id="path128"
         d="M 1.4305e-5,0 H 960.00001 V 540 H 1.4305e-5 Z" /></clipPath><clipPath
       id="clipPath144"
       clipPathUnits="userSpaceOnUse"><path
         style="clip-rule:evenodd"
         id="path142"
         d="M 1.4305e-5,0 H 960.00001 V 540 H 1.4305e-5 Z" /></clipPath><clipPath
       id="clipPath156"
       clipPathUnits="userSpaceOnUse"><path
         style="clip-rule:evenodd"
         id="path154"
         d="m 877.2,510.24 h 23.16 v 23.28 H 877.2 Z" /></clipPath><clipPath
       id="clipPath166"
       clipPathUnits="userSpaceOnUse"><path
         id="path164"
         d="M 0,0 H 11.656 V 11.64 H 0 Z" /></clipPath><clipPath
       id="clipPath180"
       clipPathUnits="userSpaceOnUse"><path
         style="clip-rule:evenodd"
         id="path178"
         d="M 1.4305e-5,0 H 960.00001 V 540 H 1.4305e-5 Z" /></clipPath><clipPath
       id="clipPath192"
       clipPathUnits="userSpaceOnUse"><path
         style="clip-rule:evenodd"
         id="path190"
         d="M 0,1.2207e-4 H 960 V 540.00012 H 0 Z" /></clipPath><clipPath
       id="clipPath206"
       clipPathUnits="userSpaceOnUse"><path
         style="clip-rule:evenodd"
         id="path204"
         d="M 1.4305e-5,0 H 960.00001 V 540 H 1.4305e-5 Z" /></clipPath><clipPath
       id="clipPath218"
       clipPathUnits="userSpaceOnUse"><path
         style="clip-rule:evenodd"
         id="path216"
         d="M 1.4305e-5,0 H 960.00001 V 540 H 1.4305e-5 Z" /></clipPath><clipPath
       id="clipPath230"
       clipPathUnits="userSpaceOnUse"><path
         style="clip-rule:evenodd"
         id="path228"
         d="M 1.4305e-5,0 H 960.00001 V 540 H 1.4305e-5 Z" /></clipPath><clipPath
       id="clipPath242"
       clipPathUnits="userSpaceOnUse"><path
         style="clip-rule:evenodd"
         id="path240"
         d="M 1.4305e-5,0 H 960.00001 V 540 H 1.4305e-5 Z" /></clipPath><clipPath
       id="clipPath254"
       clipPathUnits="userSpaceOnUse"><path
         style="clip-rule:evenodd"
         id="path252"
         d="M 1.4305e-5,0 H 960.00001 V 540 H 1.4305e-5 Z" /></clipPath><clipPath
       id="clipPath266"
       clipPathUnits="userSpaceOnUse"><path
         style="clip-rule:evenodd"
         id="path264"
         d="M 1.4305e-5,0 H 960.00001 V 540 H 1.4305e-5 Z" /></clipPath><clipPath
       id="clipPath278"
       clipPathUnits="userSpaceOnUse"><path
         style="clip-rule:evenodd"
         id="path276"
         d="M 1.4305e-5,0 H 960.00001 V 540 H 1.4305e-5 Z" /></clipPath><clipPath
       id="clipPath290"
       clipPathUnits="userSpaceOnUse"><path
         style="clip-rule:evenodd"
         id="path288"
         d="m 305.25,414.62 13.36,-96.93 -96.93,-13.35 -13.36,96.93 z" /></clipPath><clipPath
       id="clipPath300"
       clipPathUnits="userSpaceOnUse"><path
         id="path298"
         d="M 0,0 H 11.656 V 11.64 H 0 Z" /></clipPath></defs><g
     transform="matrix(1.3333333,0,0,-1.3333333,0,720)"
     id="g10"><g
       id="g12"><g
         clip-path="url(#clipPath18)"
         id="g14"><path
           id="path20"
           style="fill:#f2f2f2;fill-opacity:1;fill-rule:evenodd;stroke:none"
           d="M 0,6.1035e-5 H 960 V 540.00006 H 0 Z" /></g></g><g
       id="g22"><g
         clip-path="url(#clipPath28)"
         id="g24"><path
           id="path30"
           style="fill:#ededed;fill-opacity:1;fill-rule:evenodd;stroke:none"
           d="m 0.36,504.96 h 960 V 540 h -960 z" /></g></g><path
       id="path32"
       style="fill:#dbdbdb;fill-opacity:1;fill-rule:evenodd;stroke:none"
       d="m 416.88,531.28 c 0,4.42 3.58,8 8,8 h 110.24 c 4.42,0 8,-3.58 8,-8 v -32 c 0,-4.42 -3.58,-8 -8,-8 H 424.88 c -4.42,0 -8,3.58 -8,8 z" /><g
       id="g34"><g
         clip-path="url(#clipPath40)"
         id="g36"><text
           id="text44"
           style="font-variant:normal;font-weight:500;font-size:24.02400017px;font-family:monogram;-inkscape-font-specification:monogram;writing-mode:lr-tb;fill:#7f7f7f;fill-opacity:1;fill-rule:nonzero;stroke:none"
           transform="matrix(1,0,0,-1,462.02,505.39)"><tspan
             id="tspan42"
             y="0"
             x="0 9 18 27">Logo</tspan></text>
</g></g><path
       id="path46"
       style="fill:#dbdbdb;fill-opacity:1;fill-rule:evenodd;stroke:none"
       d="m 914.16,477.48 c 0,9.68 8.38,17.52 18.72,17.52 10.34,0 18.72,-7.84 18.72,-17.52 0,-9.68 -8.38,-17.52 -18.72,-17.52 -10.34,0 -18.72,7.84 -18.72,17.52 z" /><path
       id="path48"
       style="fill:#dbdbdb;fill-opacity:1;fill-rule:evenodd;stroke:none"
       d="M 245.76,188.52 H 714.24 V 469.44 H 245.76 Z" /><g
       id="g50"><g
         clip-path="url(#clipPath56)"
         id="g52"><text
           id="text60"
           style="font-variant:normal;font-weight:500;font-size:32.04000092px;font-family:monogram;-inkscape-font-specification:monogram;writing-mode:lr-tb;fill:#7f7f7f;fill-opacity:1;fill-rule:nonzero;stroke:none"
           transform="matrix(1,0,0,-1,401.98,315.86)"><tspan
             id="tspan58"
             y="0"
             x="0 12 24 36 48 60 72 84 96 108 120 132 144">video preview</tspan></text>
</g></g><g
       id="g62"><g
         clip-path="url(#clipPath68)"
         id="g64"><path
           id="path70"
           style="fill:#ffffff;fill-opacity:1;fill-rule:evenodd;stroke:none"
           d="M 0,6.1035e-5 H 960 V 160.44006 H 0 Z" /></g></g><g
       id="g72"><g
         clip-path="url(#clipPath78)"
         id="g74"><text
           id="text82"
           style="font-variant:normal;font-weight:500;font-size:32.04000092px;font-family:monogram;-inkscape-font-specification:monogram;writing-mode:lr-tb;fill:#7f7f7f;fill-opacity:1;fill-rule:nonzero;stroke:none"
           transform="matrix(1,0,0,-1,444,67.056)"><tspan
             id="tspan80"
             y="0"
             x="0 12 24 36 48 60">Editor</tspan></text>
</g></g><g
       id="g84"><g
         clip-path="url(#clipPath90)"
         id="g86"><g
           transform="matrix(0.39167,0,0,0.375,919.8,463.32)"
           id="g92"><g
             transform="scale(6.1772,6.1856)"
             id="g94"><g
               clip-path="url(#clipPath100)"
               id="g96"><path
                 id="path102"
                 style="fill:#000000;fill-opacity:1;fill-rule:nonzero;stroke:none"
                 d="m 5.9579,9.9949 c 0.5423,0.0033 1.0092,-0.3821 1.1088,-0.9151 0,-9e-4 0.0011,-0.0014 0.0018,-8e-4 C 7.2701,9.2318 7.5159,9.3149 7.7689,9.3157 8.3932,9.3137 8.8988,8.8079 8.9006,8.1836 8.9012,8.0963 8.89,8.0094 8.8672,7.9251 c -10e-5,-6e-4 3e-4,-0.0013 9e-4,-0.0014 2e-4,-10e-5 4e-4,-10e-5 6e-4,0 C 8.9578,7.9471 9.0497,7.9583 9.1418,7.957 9.767,7.948 10.266,7.4338 10.257,6.8087 10.248,6.1905 9.7452,5.6939 9.127,5.693 8.9715,5.6972 8.8183,5.7316 8.6758,5.7942 c -5e-4,2e-4 -0.0012,0 -0.0014,-5e-4 -10e-5,-2e-4 -2e-4,-4e-4 -10e-5,-6e-4 V 5.7168 C 8.6792,5.1199 8.2256,4.619 7.6312,4.5648 7.2429,4.5329 6.8662,4.7069 6.6387,5.0233 c -4e-4,4e-4 -0.001,5e-4 -0.0015,10e-5 -2e-4,-10e-5 -4e-4,-4e-4 -4e-4,-7e-4 C 6.5778,4.399 6.0244,3.9413 5.4008,4.0003 4.8191,4.0553 4.3744,4.5432 4.3733,5.1274 c 0,0.0409 0.0036,0.0816 0.0108,0.1218 3e-4,5e-4 2e-4,0.0011 -3e-4,0.0014 -5e-4,2e-4 -0.0011,10e-5 -0.0013,-4e-4 C 3.8917,4.8696 3.1853,4.9589 2.8047,5.4497 2.674,5.6182 2.594,5.8203 2.5738,6.0326 H 2.5624 c -0.6252,9e-4 -1.1313,0.5085 -1.1304,1.1337 9e-4,0.6182 0.4975,1.1214 1.1157,1.1303 0.0921,0.0013 0.184,-0.0099 0.2731,-0.0333 7e-4,-2e-4 0.0014,3e-4 0.0015,0.001 1e-4,2e-4 1e-4,4e-4 0,5e-4 -0.02,0.0767 -0.0312,0.1553 -0.0332,0.2345 -0.0152,0.6228 0.4774,1.14 1.1002,1.1551 0.389,0.0095 0.7554,-0.1822 0.9694,-0.5071 3e-4,-5e-4 0.001,-7e-4 0.0015,-5e-4 2e-4,2e-4 4e-4,3e-4 5e-4,5e-4 0.1355,0.4958 0.5833,0.8417 1.0972,0.8476 m 0,0.2401 C 5.4819,10.232 5.0409,9.9836 4.7909,9.5785 4.5469,9.7828 4.2389,9.8949 3.9207,9.8953 3.1686,9.8943 2.5571,9.2887 2.5489,8.5366 1.7911,8.5285 1.1834,7.9076 1.1915,7.1497 1.1988,6.4723 1.6994,5.9016 2.3701,5.806 2.5532,5.0754 3.2939,4.6316 4.0245,4.8147 4.0704,4.8262 4.1157,4.8401 4.1602,4.8564 4.3107,4.1125 5.0358,3.6316 5.7796,3.7821 6.2143,3.87 6.5798,4.1624 6.7611,4.5672 6.9895,4.4057 7.2627,4.3196 7.5424,4.3209 8.2161,4.3217 8.7898,4.8109 8.8971,5.476 8.9728,5.461 9.0498,5.4533 9.127,5.453 9.8848,5.4553 10.497,6.0714 10.495,6.8292 10.493,7.5785 9.8898,8.1874 9.1406,8.197 9.1324,8.9491 8.5209,9.5547 7.7689,9.5557 7.5752,9.5554 7.3837,9.5149 7.2064,9.4368 6.984,9.9256 6.495,10.238 5.9579,10.235 Z" /><path
                 id="path104"
                 style="fill:#000000;fill-opacity:1;fill-rule:nonzero;stroke:none"
                 d="m 3.565,3.7527 c 0.2651,0 0.48,-0.2149 0.48,-0.48 0,-0.2651 -0.2149,-0.48 -0.48,-0.48 -0.2651,0 -0.48,0.2149 -0.48,0.48 4e-4,0.265 0.2151,0.4796 0.48,0.48 m 0,0.24 c -0.3976,0 -0.72,-0.3223 -0.72,-0.72 0,-0.3976 0.3224,-0.72 0.72,-0.72 0.3977,0 0.72,0.3224 0.72,0.72 0,0.3977 -0.3223,0.72 -0.72,0.72 z" /><path
                 id="path106"
                 style="fill:#000000;fill-opacity:1;fill-rule:nonzero;stroke:none"
                 d="m 2.125,2.3124 c 0.1657,0 0.3,-0.1344 0.3,-0.3 0,-0.1657 -0.1343,-0.3 -0.3,-0.3 -0.1657,0 -0.3,0.1343 -0.3,0.3 0,0.1656 0.1343,0.3 0.3,0.3 m 0,0.24 c -0.2982,0 -0.54,-0.2418 -0.54,-0.54 0,-0.2983 0.2418,-0.54 0.54,-0.54 0.2983,0 0.54,0.2417 0.54,0.54 0,0.2982 -0.2417,0.54 -0.54,0.54 z" /></g></g></g></g></g><path
       id="path108"
       style="fill:#dbdbdb;fill-opacity:1;fill-rule:evenodd;stroke:none"
       d="m 4.56,510.24 h 66.96 v 23.28 H 4.56 Z" /><g
       id="g110"><g
         clip-path="url(#clipPath116)"
         id="g112"><text
           id="text120"
           style="font-variant:normal;font-weight:500;font-size:20.04000092px;font-family:monogram;-inkscape-font-specification:monogram;writing-mode:lr-tb;fill:#7f7f7f;fill-opacity:1;fill-rule:nonzero;stroke:none"
           transform="matrix(1,0,0,-1,22.968,513.7)"><tspan
             id="tspan118"
             y="0"
             x="0 7.5599999 15.12 22.68">file</tspan></text>
</g></g><path
       id="path122"
       style="fill:#dbdbdb;fill-opacity:1;fill-rule:evenodd;stroke:none"
       d="m 78.24,510.24 h 67.08 v 23.28 H 78.24 Z" /><g
       id="g124"><g
         clip-path="url(#clipPath130)"
         id="g126"><text
           id="text134"
           style="font-variant:normal;font-weight:500;font-size:20.04000092px;font-family:monogram;-inkscape-font-specification:monogram;writing-mode:lr-tb;fill:#7f7f7f;fill-opacity:1;fill-rule:nonzero;stroke:none"
           transform="matrix(1,0,0,-1,96.672,513.7)"><tspan
             id="tspan132"
             y="0"
             x="0 7.5599999 15.12 22.68">edit</tspan></text>
</g></g><path
       id="path136"
       style="fill:#e2f0d9;fill-opacity:1;fill-rule:evenodd;stroke:none"
       d="m 865.56,531 c 0,2.52 2.04,4.56 4.56,4.56 h 80.76 c 2.52,0 4.56,-2.04 4.56,-4.56 v -18.24 c 0,-2.52 -2.04,-4.56 -4.56,-4.56 h -80.76 c -2.52,0 -4.56,2.04 -4.56,4.56 z" /><g
       id="g138"><g
         clip-path="url(#clipPath144)"
         id="g140"><text
           id="text148"
           style="font-variant:normal;font-weight:500;font-size:20.04000092px;font-family:monogram;-inkscape-font-specification:monogram;writing-mode:lr-tb;fill:#595959;fill-opacity:1;fill-rule:nonzero;stroke:none"
           transform="matrix(1,0,0,-1,902.95,513.7)"><tspan
             id="tspan146"
             y="0"
             x="0 7.5599999 15.12 22.68">save</tspan></text>
</g></g><g
       id="g150"><g
         clip-path="url(#clipPath156)"
         id="g152"><g
           transform="matrix(0.32167,0,0,0.32333,877.2,510.24)"
           id="g158"><g
             transform="scale(6.1772,6.1856)"
             id="g160"><g
               clip-path="url(#clipPath166)"
               id="g162"><path
                 id="path168"
                 style="fill:#595959;fill-opacity:1;fill-rule:nonzero;stroke:none"
                 d="M 4.0769,5.95 5.8418,4.1852 7.6066,5.95 7.7266,6.07 7.5569,6.2397 7.4369,6.1197 5.9638,4.6466 c -4e-4,-5e-4 -0.0012,-5e-4 -0.0017,0 -2e-4,2e-4 -3e-4,5e-4 -3e-4,8e-4 v 4.7475 h -0.24 V 4.6474 c 0,-6e-4 -6e-4,-0.0012 -0.0012,-0.0012 -3e-4,10e-5 -6e-4,2e-4 -8e-4,4e-4 L 4.2466,6.1197 4.1266,6.2397 3.9569,6.07 Z" /><path
                 id="path170"
                 style="fill:#595959;fill-opacity:1;fill-rule:nonzero;stroke:none"
                 d="m 9.085,2.4349 h -6.48 v 2.4 h -0.24 v -2.64 h 6.96 v 2.64 h -0.24 z" /></g></g></g></g></g><path
       id="path172"
       style="fill:#dbdbdb;fill-opacity:1;fill-rule:evenodd;stroke:none"
       d="M 151.92,510.24 H 219 v 23.28 h -67.08 z" /><g
       id="g174"><g
         clip-path="url(#clipPath180)"
         id="g176"><text
           id="text184"
           style="font-variant:normal;font-weight:500;font-size:20.04000092px;font-family:monogram;-inkscape-font-specification:monogram;writing-mode:lr-tb;fill:#7f7f7f;fill-opacity:1;fill-rule:nonzero;stroke:none"
           transform="matrix(1,0,0,-1,162.84,513.7)"><tspan
             id="tspan182"
             y="0"
             x="0 7.5599999 15.12 22.68 30.24 37.799999">etc...</tspan></text>
</g></g><g
       id="g186"><g
         clip-path="url(#clipPath192)"
         id="g188"><path
           id="path194"
           style="fill:#000000;fill-opacity:0.14902003;fill-rule:evenodd;stroke:none"
           d="M 0,6.1035e-5 H 959.64 V 540.00006 H 0 Z" /></g></g><path
       id="path196"
       style="fill:#f2f2f2;fill-opacity:1;fill-rule:evenodd;stroke:none"
       d="m 197.04,354.48 c 0,30.29 24.55,54.84 54.84,54.84 h 455.76 c 30.29,0 54.84,-24.55 54.84,-54.84 V 135.12 c 0,-30.29 -24.55,-54.84 -54.84,-54.84 H 251.88 c -30.29,0 -54.84,24.55 -54.84,54.84 z" /><path
       id="path198"
       style="fill:none;stroke:#d9d9d9;stroke-width:1;stroke-linecap:butt;stroke-linejoin:miter;stroke-miterlimit:10;stroke-dasharray:none;stroke-opacity:1"
       d="m 197.04,354.48 c 0,30.29 24.55,54.84 54.84,54.84 h 455.76 c 30.29,0 54.84,-24.55 54.84,-54.84 V 135.12 c 0,-30.29 -24.55,-54.84 -54.84,-54.84 H 251.88 c -30.29,0 -54.84,24.55 -54.84,54.84 z" /><g
       id="g200"><g
         clip-path="url(#clipPath206)"
         id="g202"><text
           id="text210"
           style="font-variant:normal;font-weight:500;font-size:32.04000092px;font-family:monogram;-inkscape-font-specification:monogram;writing-mode:lr-tb;fill:#7f7f7f;fill-opacity:1;fill-rule:nonzero;stroke:none"
           transform="matrix(1,0,0,-1,299.83,289.27)"><tspan
             id="tspan208"
             y="0"
             x="0 12 24 36 48 60 72 84 96 108 120 132 144 156 168 180 192">Drag and drop to </tspan></text>
</g></g><g
       id="g212"><g
         clip-path="url(#clipPath218)"
         id="g214"><text
           id="text222"
           style="font-variant:normal;font-weight:500;font-size:32.04000092px;font-family:monogram;-inkscape-font-specification:monogram;writing-mode:lr-tb;fill:#404040;fill-opacity:1;fill-rule:nonzero;stroke:none"
           transform="matrix(1,0,0,-1,503.88,289.27)"><tspan
             id="tspan220"
             y="0"
             x="0 12 24 36 48 60">import</tspan></text>
</g></g><g
       id="g224"><g
         clip-path="url(#clipPath230)"
         id="g226"><text
           id="text234"
           style="font-variant:normal;font-weight:500;font-size:32.04000092px;font-family:monogram;-inkscape-font-specification:monogram;writing-mode:lr-tb;fill:#7f7f7f;fill-opacity:1;fill-rule:nonzero;stroke:none"
           transform="matrix(1,0,0,-1,587.88,289.27)"><tspan
             id="tspan232"
             y="0"
             x="0 12 24 36 48 60">files.</tspan></text>
</g></g><g
       id="g236"><g
         clip-path="url(#clipPath242)"
         id="g238"><text
           id="text246"
           style="font-variant:normal;font-weight:500;font-size:32.06399918px;font-family:monogram;-inkscape-font-specification:monogram;writing-mode:lr-tb;fill:#7f7f7f;fill-opacity:1;fill-rule:nonzero;stroke:none"
           transform="matrix(1,0,0,-1,449.86,250.87)"><tspan
             id="tspan244"
             y="0"
             x="0 12 24 36 48">.midi</tspan></text>
</g></g><g
       id="g248"><g
         clip-path="url(#clipPath254)"
         id="g250"><text
           id="text258"
           style="font-variant:normal;font-weight:500;font-size:32.04000092px;font-family:monogram;-inkscape-font-specification:monogram;writing-mode:lr-tb;fill:#7f7f7f;fill-opacity:1;fill-rule:nonzero;stroke:none"
           transform="matrix(1,0,0,-1,455.86,212.45)"><tspan
             id="tspan256"
             y="0"
             x="0 12 24 36">.wav</tspan></text>
</g></g><g
       id="g260"><g
         clip-path="url(#clipPath266)"
         id="g262"><text
           id="text270"
           style="font-variant:normal;font-weight:500;font-size:32.04000092px;font-family:monogram;-inkscape-font-specification:monogram;writing-mode:lr-tb;fill:#7f7f7f;fill-opacity:1;fill-rule:nonzero;stroke:none"
           transform="matrix(1,0,0,-1,455.86,174.05)"><tspan
             id="tspan268"
             y="0"
             x="0 12">.m</tspan></text>
</g></g><g
       id="g272"><g
         clip-path="url(#clipPath278)"
         id="g274"><text
           id="text282"
           style="font-variant:normal;font-weight:500;font-size:32.04000092px;font-family:monogram;-inkscape-font-specification:monogram;writing-mode:lr-tb;fill:#7f7f7f;fill-opacity:1;fill-rule:nonzero;stroke:none"
           transform="matrix(1,0,0,-1,479.86,174.05)"><tspan
             id="tspan280"
             y="0"
             x="0 12">p3</tspan></text>
</g></g><g
       id="g284"><g
         clip-path="url(#clipPath290)"
         id="g286"><g
           transform="matrix(1.3462,0.18551,-0.18551,1.3462,221.68,304.34)"
           id="g292"><g
             transform="scale(6.1772,6.1856)"
             id="g294"><g
               clip-path="url(#clipPath300)"
               id="g296"><path
                 id="path302"
                 style="fill:#7f7f7f;fill-opacity:1;fill-rule:nonzero;stroke:none"
                 d="M 1.3975,2.4356 C 1.4017,2.4341 1.406,2.4331 1.4104,2.4324 H 8.845 l 1.632,3.5049 c 0.117,0.2432 0.014,0.5348 -0.229,0.6513 -0.049,0.0234 -0.101,0.0385 -0.155,0.0447 H 9.565 v 1.08 c -8e-4,0.2648 -0.2152,0.4792 -0.48,0.48 H 5.5186 C 5.4969,8.1934 5.4756,8.1998 5.4574,8.2118 L 4.165,9.0702 c -0.0789,0.051 -0.1701,0.08 -0.264,0.084 H 1.645 C 1.3803,9.1534 1.1658,8.9389 1.165,8.6742 V 2.6749 C 1.1654,2.5455 1.2682,2.4397 1.3975,2.4356 Z M 10.08,6.3936 C 10.216,6.3695 10.306,6.2403 10.282,6.105 10.278,6.0841 10.272,6.0638 10.263,6.0446 L 10.261,6.0416 10.26,6.0386 8.6927,2.6731 8.6917,2.6724 H 1.657 c -6e-4,0 -0.0012,5e-4 -0.0011,0.0012 0,1e-4 0,3e-4 0,4e-4 L 3.1366,6.2726 C 3.1712,6.3455 3.2443,6.3925 3.325,6.3936 Z M 1.405,8.6742 c 0,0.1325 0.1075,0.24 0.24,0.24 H 3.901 C 3.9505,8.91 3.9982,8.8933 4.0394,8.8656 L 5.3246,8.0125 C 5.3821,7.9743 5.4496,7.9539 5.5186,7.9539 H 9.085 c 0.1326,0 0.24,-0.1074 0.24,-0.24 V 6.6349 H 3.445 C 3.4387,6.6349 3.433,6.6338 3.4263,6.6336 H 3.325 C 3.1492,6.6327 2.9899,6.5296 2.917,6.3696 L 1.4073,2.7007 c -2e-4,-7e-4 -9e-4,-10e-4 -0.0015,-8e-4 -4e-4,1e-4 -7e-4,4e-4 -8e-4,8e-4 z" /></g></g></g></g></g></g></svg>