<?xml version="1.0" encoding="UTF-8" standalone="no"?>
<svg
   xmlns:dc="http://purl.org/dc/elements/1.1/"
   xmlns:cc="http://creativecommons.org/ns#"
   xmlns:rdf="http://www.w3.org/1999/02/22-rdf-syntax-ns#"
   xmlns:svg="http://www.w3.org/2000/svg"
   xmlns="http://www.w3.org/2000/svg"
   viewBox="0 0 1280 720"
   height="720"
   width="1280"
   xml:space="preserve"
   id="svg2"
   version="1.1"><metadata
     id="metadata8"><rdf:RDF><cc:Work
         rdf:about=""><dc:format>image/svg+xml</dc:format><dc:type
           rdf:resource="http://purl.org/dc/dcmitype/StillImage" /></cc:Work></rdf:RDF></metadata><defs
     id="defs6"><clipPath
       id="clipPath18"
       clipPathUnits="userSpaceOnUse"><path
         style="clip-rule:evenodd"
         id="path16"
         d="M 0,1.2207e-4 H 960 V 540.00012 H 0 Z" /></clipPath><clipPath
       id="clipPath28"
       clipPathUnits="userSpaceOnUse"><path
         style="clip-rule:evenodd"
         id="path26"
         d="M 1.2e-8,1.2207e-4 H 960 V 540.00012 H 1.2e-8 Z" /></clipPath><clipPath
       id="clipPath40"
       clipPathUnits="userSpaceOnUse"><path
         style="clip-rule:evenodd"
         id="path38"
         d="M 1.4305e-5,0 H 960.00001 V 540 H 1.4305e-5 Z" /></clipPath><clipPath
       id="clipPath56"
       clipPathUnits="userSpaceOnUse"><path
         style="clip-rule:evenodd"
         id="path54"
         d="M 0,2.4414e-4 H 960 V 540.00024 H 0 Z" /></clipPath><clipPath
       id="clipPath66"
       clipPathUnits="userSpaceOnUse"><path
         style="clip-rule:evenodd"
         id="path64"
         d="M 919.8,463.32 H 948 v 27 h -28.2 z" /></clipPath><clipPath
       id="clipPath76"
       clipPathUnits="userSpaceOnUse"><path
         id="path74"
         d="M 0,0 H 11.656 V 11.64 H 0 Z" /></clipPath><clipPath
       id="clipPath92"
       clipPathUnits="userSpaceOnUse"><path
         style="clip-rule:evenodd"
         id="path90"
         d="M 1.4305e-5,0 H 960.00001 V 540 H 1.4305e-5 Z" /></clipPath><clipPath
       id="clipPath106"
       clipPathUnits="userSpaceOnUse"><path
         style="clip-rule:evenodd"
         id="path104"
         d="M 1.4305e-5,0 H 960.00001 V 540 H 1.4305e-5 Z" /></clipPath><clipPath
       id="clipPath120"
       clipPathUnits="userSpaceOnUse"><path
         style="clip-rule:evenodd"
         id="path118"
         d="M 1.4305e-5,0 H 960.00001 V 540 H 1.4305e-5 Z" /></clipPath><clipPath
       id="clipPath132"
       clipPathUnits="userSpaceOnUse"><path
         style="clip-rule:evenodd"
         id="path130"
         d="m 877.2,510.24 h 23.16 v 23.28 H 877.2 Z" /></clipPath><clipPath
       id="clipPath142"
       clipPathUnits="userSpaceOnUse"><path
         id="path140"
         d="M 0,0 H 11.656 V 11.64 H 0 Z" /></clipPath><clipPath
       id="clipPath156"
       clipPathUnits="userSpaceOnUse"><path
         style="clip-rule:evenodd"
         id="path154"
         d="M 1.4305e-5,0 H 960.00001 V 540 H 1.4305e-5 Z" /></clipPath><clipPath
       id="clipPath170"
       clipPathUnits="userSpaceOnUse"><path
         style="clip-rule:evenodd"
         id="path168"
         d="M 1.4305e-5,0 H 960.00001 V 540 H 1.4305e-5 Z" /></clipPath><clipPath
       id="clipPath184"
       clipPathUnits="userSpaceOnUse"><path
         style="clip-rule:evenodd"
         id="path182"
         d="M 1.4305e-5,0 H 960.00001 V 540 H 1.4305e-5 Z" /></clipPath><clipPath
       id="clipPath196"
       clipPathUnits="userSpaceOnUse"><path
         style="clip-rule:evenodd"
         id="path194"
         d="M 1.4305e-5,0 H 960.00001 V 540 H 1.4305e-5 Z" /></clipPath><clipPath
       id="clipPath208"
       clipPathUnits="userSpaceOnUse"><path
         style="clip-rule:evenodd"
         id="path206"
         d="M 1.4305e-5,0 H 960.00001 V 540 H 1.4305e-5 Z" /></clipPath><clipPath
       id="clipPath220"
       clipPathUnits="userSpaceOnUse"><path
         style="clip-rule:evenodd"
         id="path218"
         d="M 1.4305e-5,0 H 960.00001 V 540 H 1.4305e-5 Z" /></clipPath><clipPath
       id="clipPath232"
       clipPathUnits="userSpaceOnUse"><path
         style="clip-rule:evenodd"
         id="path230"
         d="M 1.4305e-5,0 H 960.00001 V 540 H 1.4305e-5 Z" /></clipPath><clipPath
       id="clipPath244"
       clipPathUnits="userSpaceOnUse"><path
         style="clip-rule:evenodd"
         id="path242"
         d="M 1.4305e-5,0 H 960.00001 V 540 H 1.4305e-5 Z" /></clipPath><clipPath
       id="clipPath256"
       clipPathUnits="userSpaceOnUse"><path
         style="clip-rule:evenodd"
         id="path254"
         d="M 1.4305e-5,0 H 960.00001 V 540 H 1.4305e-5 Z" /></clipPath></defs><g
     transform="matrix(1.3333333,0,0,-1.3333333,0,720)"
     id="g10"><g
       id="g12"><g
         clip-path="url(#clipPath18)"
         id="g14"><path
           id="path20"
           style="fill:#f2f2f2;fill-opacity:1;fill-rule:evenodd;stroke:none"
           d="M 0,6.1035e-5 H 960 V 540.00006 H 0 Z" /></g></g><g
       id="g22"><g
         clip-path="url(#clipPath28)"
         id="g24"><path
           id="path30"
           style="fill:#ededed;fill-opacity:1;fill-rule:evenodd;stroke:none"
           d="m 0.36,504.96 h 960 V 540 h -960 z" /></g></g><path
       id="path32"
       style="fill:#dbdbdb;fill-opacity:1;fill-rule:evenodd;stroke:none"
       d="m 416.88,531.28 c 0,4.42 3.58,8 8,8 h 110.24 c 4.42,0 8,-3.58 8,-8 v -32 c 0,-4.42 -3.58,-8 -8,-8 H 424.88 c -4.42,0 -8,3.58 -8,8 z" /><g
       id="g34"><g
         clip-path="url(#clipPath40)"
         id="g36"><text
           id="text44"
           style="font-variant:normal;font-weight:500;font-size:24.02400017px;font-family:monogram;-inkscape-font-specification:monogram;writing-mode:lr-tb;fill:#7f7f7f;fill-opacity:1;fill-rule:nonzero;stroke:none"
           transform="matrix(1,0,0,-1,462.02,505.39)"><tspan
             id="tspan42"
             y="0"
             x="0 9 18 27">Logo</tspan></text>
</g></g><path
       id="path46"
       style="fill:#dbdbdb;fill-opacity:1;fill-rule:evenodd;stroke:none"
       d="m 914.16,477.48 c 0,9.68 8.38,17.52 18.72,17.52 10.34,0 18.72,-7.84 18.72,-17.52 0,-9.68 -8.38,-17.52 -18.72,-17.52 -10.34,0 -18.72,7.84 -18.72,17.52 z" /><path
       id="path48"
       style="fill:#ffffff;fill-opacity:1;fill-rule:evenodd;stroke:none"
       d="M 245.76,188.52 H 714.24 V 469.44 H 245.76 Z" /><g
       id="g50"><g
         clip-path="url(#clipPath56)"
         id="g52"><path
           id="path58"
           style="fill:#e7e6e6;fill-opacity:1;fill-rule:evenodd;stroke:none"
           d="M 0,6.1035e-5 H 960 V 160.44006 H 0 Z" /></g></g><g
       id="g60"><g
         clip-path="url(#clipPath66)"
         id="g62"><g
           transform="matrix(0.39167,0,0,0.375,919.8,463.32)"
           id="g68"><g
             transform="scale(6.1772,6.1856)"
             id="g70"><g
               clip-path="url(#clipPath76)"
               id="g72"><path
                 id="path78"
                 style="fill:#000000;fill-opacity:1;fill-rule:nonzero;stroke:none"
                 d="m 5.9579,9.9949 c 0.5423,0.0033 1.0092,-0.3821 1.1088,-0.9151 0,-9e-4 0.0011,-0.0014 0.0018,-8e-4 C 7.2701,9.2318 7.5159,9.3149 7.7689,9.3157 8.3932,9.3137 8.8988,8.8079 8.9006,8.1836 8.9012,8.0963 8.89,8.0094 8.8672,7.9251 c -10e-5,-6e-4 3e-4,-0.0013 9e-4,-0.0014 2e-4,-10e-5 4e-4,-10e-5 6e-4,0 C 8.9578,7.9471 9.0497,7.9583 9.1418,7.957 9.767,7.948 10.266,7.4338 10.257,6.8087 10.248,6.1905 9.7452,5.6939 9.127,5.693 8.9715,5.6972 8.8183,5.7316 8.6758,5.7942 c -5e-4,2e-4 -0.0012,0 -0.0014,-5e-4 -10e-5,-2e-4 -2e-4,-4e-4 -10e-5,-6e-4 V 5.7168 C 8.6792,5.1199 8.2256,4.619 7.6312,4.5648 7.2429,4.5329 6.8662,4.7069 6.6387,5.0233 c -4e-4,4e-4 -0.001,5e-4 -0.0015,10e-5 -2e-4,-10e-5 -4e-4,-4e-4 -4e-4,-7e-4 C 6.5778,4.399 6.0244,3.9413 5.4008,4.0003 4.8191,4.0553 4.3744,4.5432 4.3733,5.1274 c 0,0.0409 0.0036,0.0816 0.0108,0.1218 3e-4,5e-4 2e-4,0.0011 -3e-4,0.0014 -5e-4,2e-4 -0.0011,10e-5 -0.0013,-4e-4 C 3.8917,4.8696 3.1853,4.9589 2.8047,5.4497 2.674,5.6182 2.594,5.8203 2.5738,6.0326 H 2.5624 c -0.6252,9e-4 -1.1313,0.5085 -1.1304,1.1337 9e-4,0.6182 0.4975,1.1214 1.1157,1.1303 0.0921,0.0013 0.184,-0.0099 0.2731,-0.0333 7e-4,-2e-4 0.0014,3e-4 0.0015,0.001 1e-4,2e-4 1e-4,4e-4 0,5e-4 -0.02,0.0767 -0.0312,0.1553 -0.0332,0.2345 -0.0152,0.6228 0.4774,1.14 1.1002,1.1551 0.389,0.0095 0.7554,-0.1822 0.9694,-0.5071 3e-4,-5e-4 0.001,-7e-4 0.0015,-5e-4 2e-4,2e-4 4e-4,3e-4 5e-4,5e-4 0.1355,0.4958 0.5833,0.8417 1.0972,0.8476 m 0,0.2401 C 5.4819,10.232 5.0409,9.9836 4.7909,9.5785 4.5469,9.7828 4.2389,9.8949 3.9207,9.8953 3.1686,9.8943 2.5571,9.2887 2.5489,8.5366 1.7911,8.5285 1.1834,7.9076 1.1915,7.1497 1.1988,6.4723 1.6994,5.9016 2.3701,5.806 2.5532,5.0754 3.2939,4.6316 4.0245,4.8147 4.0704,4.8262 4.1157,4.8401 4.1602,4.8564 4.3107,4.1125 5.0358,3.6316 5.7796,3.7821 6.2143,3.87 6.5798,4.1624 6.7611,4.5672 6.9895,4.4057 7.2627,4.3196 7.5424,4.3209 8.2161,4.3217 8.7898,4.8109 8.8971,5.476 8.9728,5.461 9.0498,5.4533 9.127,5.453 9.8848,5.4553 10.497,6.0714 10.495,6.8292 10.493,7.5785 9.8898,8.1874 9.1406,8.197 9.1324,8.9491 8.5209,9.5547 7.7689,9.5557 7.5752,9.5554 7.3837,9.5149 7.2064,9.4368 6.984,9.9256 6.495,10.238 5.9579,10.235 Z" /><path
                 id="path80"
                 style="fill:#000000;fill-opacity:1;fill-rule:nonzero;stroke:none"
                 d="m 3.565,3.7527 c 0.2651,0 0.48,-0.2149 0.48,-0.48 0,-0.2651 -0.2149,-0.48 -0.48,-0.48 -0.2651,0 -0.48,0.2149 -0.48,0.48 4e-4,0.265 0.2151,0.4796 0.48,0.48 m 0,0.24 c -0.3976,0 -0.72,-0.3223 -0.72,-0.72 0,-0.3976 0.3224,-0.72 0.72,-0.72 0.3977,0 0.72,0.3224 0.72,0.72 0,0.3977 -0.3223,0.72 -0.72,0.72 z" /><path
                 id="path82"
                 style="fill:#000000;fill-opacity:1;fill-rule:nonzero;stroke:none"
                 d="m 2.125,2.3124 c 0.1657,0 0.3,-0.1344 0.3,-0.3 0,-0.1657 -0.1343,-0.3 -0.3,-0.3 -0.1657,0 -0.3,0.1343 -0.3,0.3 0,0.1656 0.1343,0.3 0.3,0.3 m 0,0.24 c -0.2982,0 -0.54,-0.2418 -0.54,-0.54 0,-0.2983 0.2418,-0.54 0.54,-0.54 0.2983,0 0.54,0.2417 0.54,0.54 0,0.2982 -0.2417,0.54 -0.54,0.54 z" /></g></g></g></g></g><path
       id="path84"
       style="fill:#dbdbdb;fill-opacity:1;fill-rule:evenodd;stroke:none"
       d="m 4.56,510.24 h 66.96 v 23.28 H 4.56 Z" /><g
       id="g86"><g
         clip-path="url(#clipPath92)"
         id="g88"><text
           id="text96"
           style="font-variant:normal;font-weight:500;font-size:20.04000092px;font-family:monogram;-inkscape-font-specification:monogram;writing-mode:lr-tb;fill:#7f7f7f;fill-opacity:1;fill-rule:nonzero;stroke:none"
           transform="matrix(1,0,0,-1,22.968,513.7)"><tspan
             id="tspan94"
             y="0"
             x="0 7.5599999 15.12 22.68">file</tspan></text>
</g></g><path
       id="path98"
       style="fill:#dbdbdb;fill-opacity:1;fill-rule:evenodd;stroke:none"
       d="m 78.24,510.24 h 67.08 v 23.28 H 78.24 Z" /><g
       id="g100"><g
         clip-path="url(#clipPath106)"
         id="g102"><text
           id="text110"
           style="font-variant:normal;font-weight:500;font-size:20.04000092px;font-family:monogram;-inkscape-font-specification:monogram;writing-mode:lr-tb;fill:#7f7f7f;fill-opacity:1;fill-rule:nonzero;stroke:none"
           transform="matrix(1,0,0,-1,96.672,513.7)"><tspan
             id="tspan108"
             y="0"
             x="0 7.5599999 15.12 22.68">edit</tspan></text>
</g></g><path
       id="path112"
       style="fill:#e2f0d9;fill-opacity:1;fill-rule:evenodd;stroke:none"
       d="m 865.56,531 c 0,2.52 2.04,4.56 4.56,4.56 h 80.76 c 2.52,0 4.56,-2.04 4.56,-4.56 v -18.24 c 0,-2.52 -2.04,-4.56 -4.56,-4.56 h -80.76 c -2.52,0 -4.56,2.04 -4.56,4.56 z" /><g
       id="g114"><g
         clip-path="url(#clipPath120)"
         id="g116"><text
           id="text124"
           style="font-variant:normal;font-weight:500;font-size:20.04000092px;font-family:monogram;-inkscape-font-specification:monogram;writing-mode:lr-tb;fill:#595959;fill-opacity:1;fill-rule:nonzero;stroke:none"
           transform="matrix(1,0,0,-1,902.95,513.7)"><tspan
             id="tspan122"
             y="0"
             x="0 7.5599999 15.12 22.68">save</tspan></text>
</g></g><g
       id="g126"><g
         clip-path="url(#clipPath132)"
         id="g128"><g
           transform="matrix(0.32167,0,0,0.32333,877.2,510.24)"
           id="g134"><g
             transform="scale(6.1772,6.1856)"
             id="g136"><g
               clip-path="url(#clipPath142)"
               id="g138"><path
                 id="path144"
                 style="fill:#595959;fill-opacity:1;fill-rule:nonzero;stroke:none"
                 d="M 4.0769,5.95 5.8418,4.1852 7.6066,5.95 7.7266,6.07 7.5569,6.2397 7.4369,6.1197 5.9638,4.6466 c -4e-4,-5e-4 -0.0012,-5e-4 -0.0017,0 -2e-4,2e-4 -3e-4,5e-4 -3e-4,8e-4 v 4.7475 h -0.24 V 4.6474 c 0,-6e-4 -6e-4,-0.0012 -0.0012,-0.0012 -3e-4,10e-5 -6e-4,2e-4 -8e-4,4e-4 L 4.2466,6.1197 4.1266,6.2397 3.9569,6.07 Z" /><path
                 id="path146"
                 style="fill:#595959;fill-opacity:1;fill-rule:nonzero;stroke:none"
                 d="m 9.085,2.4349 h -6.48 v 2.4 h -0.24 v -2.64 h 6.96 v 2.64 h -0.24 z" /></g></g></g></g></g><path
       id="path148"
       style="fill:#dbdbdb;fill-opacity:1;fill-rule:evenodd;stroke:none"
       d="M 151.92,510.24 H 219 v 23.28 h -67.08 z" /><g
       id="g150"><g
         clip-path="url(#clipPath156)"
         id="g152"><text
           id="text160"
           style="font-variant:normal;font-weight:500;font-size:20.04000092px;font-family:monogram;-inkscape-font-specification:monogram;writing-mode:lr-tb;fill:#7f7f7f;fill-opacity:1;fill-rule:nonzero;stroke:none"
           transform="matrix(1,0,0,-1,162.84,513.7)"><tspan
             id="tspan158"
             y="0"
             x="0 7.5599999 15.12 22.68 30.24 37.799999">etc...</tspan></text>
</g></g><path
       id="path162"
       style="fill:#f4aaaa;fill-opacity:1;fill-rule:evenodd;stroke:none"
       d="m 13.32,130.86 c 0,9.18 7.441,16.62 16.62,16.62 h 66.48 c 9.18,0 16.62,-7.44 16.62,-16.62 V 23.1 C 113.04,13.921 105.6,6.48 96.42,6.48 H 29.94 c -9.179,0 -16.62,7.441 -16.62,16.62 z" /><g
       id="g164"><g
         clip-path="url(#clipPath170)"
         id="g166"><text
           id="text174"
           style="font-variant:normal;font-weight:normal;font-size:18px;font-family:'Courier 10 Pitch';-inkscape-font-specification:CourierNewPSMT;writing-mode:lr-tb;fill:#595959;fill-opacity:1;fill-rule:nonzero;stroke:none"
           transform="matrix(1,0,0,-1,57.672,71.256)"><tspan
             id="tspan172"
             y="0"
             x="0">…</tspan></text>
</g></g><path
       id="path176"
       style="fill:#fff2cc;fill-opacity:1;fill-rule:evenodd;stroke:none"
       d="m 129.84,123.98 c 0,12.98 10.52,23.5 23.5,23.5 h 234.64 c 12.98,0 23.5,-10.52 23.5,-23.5 V 29.981 C 411.48,17.002 400.96,6.48 387.98,6.48 H 153.34 c -12.98,0 -23.5,10.522 -23.5,23.501 z" /><g
       id="g178"><g
         clip-path="url(#clipPath184)"
         id="g180"><text
           id="text188"
           style="font-variant:normal;font-weight:500;font-size:18.97347641px;font-family:monogram;-inkscape-font-specification:monogram;writing-mode:lr-tb;fill:#595959;fill-opacity:1;fill-rule:nonzero;stroke:none"
           transform="matrix(0.94869278,0,-0.31619931,-0.94869278,20.472,125.57)"><tspan
             id="tspan186"
             y="0"
             x="0">m</tspan></text>
</g></g><g
       id="g190"><g
         clip-path="url(#clipPath196)"
         id="g192"><text
           id="text200"
           style="font-variant:normal;font-weight:500;font-size:18.97347641px;font-family:monogram;-inkscape-font-specification:monogram;writing-mode:lr-tb;fill:#595959;fill-opacity:1;fill-rule:nonzero;stroke:none"
           transform="matrix(0.94869278,0,-0.31619931,-0.94869278,27.192,125.57)"><tspan
             id="tspan198"
             y="0"
             x="0 7.1150537 14.173186 21.28824 28.44124 35.556293 42.614429 49.729481 56.787613">elo notes</tspan></text>
</g></g><g
       id="g202"><g
         clip-path="url(#clipPath208)"
         id="g204"><text
           id="text212"
           style="font-variant:normal;font-weight:500;font-size:18.97347641px;font-family:monogram;-inkscape-font-specification:monogram;writing-mode:lr-tb;fill:#595959;fill-opacity:1;fill-rule:nonzero;stroke:none"
           transform="matrix(0.94869278,0,-0.31619931,-0.94869278,145.3,125.98)"><tspan
             id="tspan210"
             y="0"
             x="0 7.0834312 14.166862 21.250294 28.333725 35.417156">chords</tspan></text>
</g></g><g
       id="g214"><g
         clip-path="url(#clipPath220)"
         id="g216"><text
           id="text224"
           style="font-variant:normal;font-weight:500;font-size:18px;font-family:monogram;-inkscape-font-specification:monogram;writing-mode:lr-tb;fill:#595959;fill-opacity:1;fill-rule:nonzero;stroke:none"
           transform="matrix(1,0,0,-1,155.74,91.416)"><tspan
             id="tspan222"
             y="0"
             x="0 6.75 13.446 20.195999 26.892 33.641998 40.338001 47.285999 54.035999 60.731998 67.482002">start: 1.2s</tspan></text>
</g></g><g
       id="g226"><g
         clip-path="url(#clipPath232)"
         id="g228"><text
           id="text236"
           style="font-variant:normal;font-weight:500;font-size:18px;font-family:monogram;-inkscape-font-specification:monogram;writing-mode:lr-tb;fill:#595959;fill-opacity:1;fill-rule:nonzero;stroke:none"
           transform="matrix(1,0,0,-1,155.74,69.816)"><tspan
             id="tspan234"
             y="0"
             x="0 6.75 13.446 20.195999 26.892 33.714001 40.464001 47.16 53.91">help ever</tspan></text>
</g></g><g
       id="g238"><g
         clip-path="url(#clipPath244)"
         id="g240"><text
           id="text248"
           style="font-variant:normal;font-weight:500;font-size:18px;font-family:monogram;-inkscape-font-specification:monogram;writing-mode:lr-tb;fill:#595959;fill-opacity:1;fill-rule:nonzero;stroke:none"
           transform="matrix(1,0,0,-1,155.74,48.216)"><tspan
             id="tspan246"
             y="0"
             x="0 6.75 13.446 20.195999 26.892 33.714001 40.464001 47.16 53.91 60.605999">hurt never</tspan></text>
</g></g><g
       id="g250"><g
         clip-path="url(#clipPath256)"
         id="g252"><text
           id="text260"
           style="font-variant:normal;font-weight:500;font-size:18px;font-family:monogram;-inkscape-font-specification:monogram;writing-mode:lr-tb;fill:#595959;fill-opacity:1;fill-rule:nonzero;stroke:none"
           transform="matrix(1,0,0,-1,273.74,91.416)"><tspan
             id="tspan258"
             y="0"
             x="0 6.75 13.446 20.195999 26.892 33.714001 40.464001 47.16">end: 31s</tspan></text>
</g></g><path
       id="path262"
       style="fill:#f4aaaa;fill-opacity:1;fill-rule:evenodd;stroke:none"
       d="m 360.12,376.92 h 29.04 v 7.92 h -29.04 z" /><path
       id="path264"
       style="fill:#f4aaaa;fill-opacity:1;fill-rule:evenodd;stroke:none"
       d="m 389.16,384.96 h 29.04 v 7.8 h -29.04 z" /><path
       id="path266"
       style="fill:#f4aaaa;fill-opacity:1;fill-rule:evenodd;stroke:none"
       d="m 418.2,402.84 h 49.92 v 7.08 H 418.2 Z" /><path
       id="path268"
       style="fill:#f4aaaa;fill-opacity:1;fill-rule:evenodd;stroke:none"
       d="m 468.12,380.88 h 29.04 v 7.8 h -29.04 z" /><path
       id="path270"
       style="fill:#f4aaaa;fill-opacity:1;fill-rule:evenodd;stroke:none"
       d="m 497.16,372.96 h 29.04 v 7.8 h -29.04 z" /><path
       id="path272"
       style="fill:#f4aaaa;fill-opacity:1;fill-rule:evenodd;stroke:none"
       d="m 526.2,402.12 h 29.04 v 7.8 H 526.2 Z" /><path
       id="path274"
       style="fill:#f4aaaa;fill-opacity:1;fill-rule:evenodd;stroke:none"
       d="m 555.24,409.92 h 29.04 v 7.8 h -29.04 z" /><path
       id="path276"
       style="fill:#fff2cc;fill-opacity:1;fill-rule:evenodd;stroke:none"
       d="m 455.88,324.72 h 87.24 v 7.08 h -87.24 z" /><path
       id="path278"
       style="fill:#fff2cc;fill-opacity:1;fill-rule:evenodd;stroke:none"
       d="M 455.76,310.2 H 543 v 7.08 h -87.24 z" /><path
       id="path280"
       style="fill:#fff2cc;fill-opacity:1;fill-rule:evenodd;stroke:none"
       d="M 455.76,281.04 H 543 v 7.08 h -87.24 z" /><path
       id="path282"
       style="fill:#fff2cc;fill-opacity:1;fill-rule:evenodd;stroke:none"
       d="m 551.04,282.24 h 59.04 v 7.08 h -59.04 z" /><path
       id="path284"
       style="fill:#fff2cc;fill-opacity:1;fill-rule:evenodd;stroke:none"
       d="m 551.04,302.88 h 59.04 v 7.08 h -59.04 z" /><path
       id="path286"
       style="fill:#fff2cc;fill-opacity:1;fill-rule:evenodd;stroke:none"
       d="m 551.04,325.2 h 59.04 v 7.08 h -59.04 z" /><path
       id="path288"
       style="fill:#fff2cc;fill-opacity:1;fill-rule:evenodd;stroke:none"
       d="m 551.04,339.84 h 59.04 v 7.08 h -59.04 z" /><path
       id="path290"
       style="fill:#d0cece;fill-opacity:1;fill-rule:evenodd;stroke:none"
       d="m 339.6,220.68 h 2.76 v 216.6 h -2.76 z" /><path
       id="path292"
       style="fill:#d0cece;fill-opacity:1;fill-rule:evenodd;stroke:none"
       d="m 625.2,220.68 h 2.76 v 216.6 h -2.76 z" /><path
       id="path294"
       style="fill:#d0cece;fill-opacity:1;fill-rule:evenodd;stroke:none"
       d="m 354,260.4 h 26.64 V 233.76 H 354 Z m 2.09,-2.09 v -22.46 h 22.46 v 22.46 z" /><path
       id="path296"
       style="fill:#d0cece;fill-opacity:1;fill-rule:evenodd;stroke:none"
       d="m 387.96,260.4 h 26.76 v -26.64 h -26.76 z m 2.09,-2.09 v -22.46 h 22.58 v 22.46 z" /><path
       id="path298"
       style="fill:#d0cece;fill-opacity:1;fill-rule:evenodd;stroke:none"
       d="m 421.8,260.4 h 26.76 V 233.76 H 421.8 Z m 2.09,-2.09 v -22.46 h 22.58 v 22.46 z" /><path
       id="path300"
       style="fill:#d0cece;fill-opacity:1;fill-rule:evenodd;stroke:none"
       d="m 455.88,260.76 h 26.76 v -26.64 h -26.76 z m 2.09,-2.09 v -22.46 h 22.58 v 22.46 z" /><path
       id="path302"
       style="fill:#d0cece;fill-opacity:1;fill-rule:evenodd;stroke:none"
       d="m 490.44,260.76 h 26.76 v -26.64 h -26.76 z m 2.09,-2.09 v -22.46 h 22.58 v 22.46 z" /><path
       id="path304"
       style="fill:#d0cece;fill-opacity:1;fill-rule:evenodd;stroke:none"
       d="m 524.28,260.16 h 26.64 v -26.64 h -26.64 z m 2.09,-2.09 v -22.46 h 22.46 v 22.46 z" /><path
       id="path306"
       style="fill:#d0cece;fill-opacity:1;fill-rule:evenodd;stroke:none"
       d="m 558.72,260.16 h 26.76 v -26.64 h -26.76 z m 2.09,-2.09 v -22.46 h 22.58 v 22.46 z" /><path
       id="path308"
       style="fill:#d0cece;fill-opacity:1;fill-rule:evenodd;stroke:none"
       d="m 592.08,260.16 h 26.76 v -26.64 h -26.76 z m 2.09,-2.09 v -22.46 h 22.58 v 22.46 z" /><path
       id="path310"
       style="fill:#fff2cc;fill-opacity:1;fill-rule:evenodd;stroke:none"
       d="m 359.04,324.84 h 90.12 v 7.08 h -90.12 z" /><path
       id="path312"
       style="fill:#fff2cc;fill-opacity:1;fill-rule:evenodd;stroke:none"
       d="m 359.04,310.32 h 90 v 7.08 h -90 z" /><path
       id="path314"
       style="fill:#fff2cc;fill-opacity:1;fill-rule:evenodd;stroke:none"
       d="m 359.04,281.16 h 90 v 7.2 h -90 z" /><path
       id="path316"
       style="fill:#d0cece;fill-opacity:1;fill-rule:evenodd;stroke:none"
       d="m 358.44,237.84 h 18.48 v 18.48 h -18.48 z" /><path
       id="path318"
       style="fill:#d0cece;fill-opacity:1;fill-rule:evenodd;stroke:none"
       d="m 459.96,237.84 h 18.48 v 18.48 h -18.48 z" /><path
       id="path320"
       style="fill:#d0cece;fill-opacity:1;fill-rule:evenodd;stroke:none"
       d="m 494.4,237.96 h 18.48 v 18.48 H 494.4 Z" /><path
       id="path322"
       style="fill:#d0cece;fill-opacity:1;fill-rule:evenodd;stroke:none"
       d="m 562.92,237.84 h 18.48 v 8.28 h -18.48 z" /><path
       id="path324"
       style="fill:#d0cece;fill-opacity:1;fill-rule:evenodd;stroke:none"
       d="m 562.92,247.44 h 18.48 v 8.28 h -18.48 z" /></g></svg>